<svg xmlns="http://www.w3.org/2000/svg" viewBox="0 0 512 512">
  <defs>
    <radialGradient id="glow" cx="50%" cy="40%" r="50%">
      <stop offset="0%" stop-color="#b388ff"/>
      <stop offset="100%" stop-color="#0a0a0f"/>
    </radialGradient>
    <linearGradient id="bulb" x1="0" y1="0" x2="0" y2="1">
      <stop offset="0%" stop-color="#e0b0ff"/>
      <stop offset="100%" stop-color="#7c5cff"/>
    </linearGradient>
  </defs>
  <rect width="512" height="512" rx="112" fill="#0a0a0f"/>
  <circle cx="256" cy="220" r="140" fill="url(#glow)" opacity="0.5"/>
  <!-- Bulb shape -->
  <path d="M256 100c-55 0-100 45-100 100 0 38 21 70 52 88v32c0 8 7 15 15 15h66c8 0 15-7 15-15v-32c31-18 52-50 52-88 0-55-45-100-100-100z" fill="url(#bulb)" opacity="0.9"/>
  <!-- Rays -->
  <g stroke="#7c5cff" stroke-width="6" stroke-linecap="round" opacity="0.6">
    <line x1="256" y1="60" x2="256" y2="30"/>
    <line x1="160" y1="94" x2="140" y2="70"/>
    <line x1="352" y1="94" x2="372" y2="70"/>
    <line x1="120" y1="200" x2="90" y2="200"/>
    <line x1="392" y1="200" x2="422" y2="200"/>
  </g>
  <!-- Base lines -->
  <rect x="218" y="340" width="76" height="8" rx="4" fill="#5c3cdf"/>
  <rect x="218" y="356" width="76" height="8" rx="4" fill="#5c3cdf"/>
  <rect x="230" y="372" width="52" height="8" rx="4" fill="#5c3cdf"/>
  <!-- Bottom tip -->
  <path d="M242 388h28l-8 20h-12z" fill="#5c3cdf"/>
</svg>
